<?xml version="1.0" standalone="no"?>
<!DOCTYPE svg PUBLIC "-//W3C//DTD SVG 20010904//EN"
 "http://www.w3.org/TR/2001/REC-SVG-20010904/DTD/svg10.dtd">
<svg version="1.0" xmlns="http://www.w3.org/2000/svg"
 width="48.000000pt" height="42.000000pt" viewBox="0 0 48.000000 42.000000"
 preserveAspectRatio="xMidYMid meet">
<metadata>
Created by potrace 1.10, written by Peter Selinger 2001-2011
</metadata>
<g transform="translate(0.000000,42.000000) scale(0.100000,-0.100000)"
fill="#fb0909" stroke="none">
<path d="M151 391 c-35 -15 -68 -33 -72 -41 -16 -28 -69 -210 -69 -234 0 -17
10 -30 33 -42 114 -60 109 -59 212 -61 55 -1 126 -5 158 -9 33 -4 57 -3 57 2
0 5 -20 11 -44 12 -24 1 -54 5 -67 10 -13 5 -48 6 -78 2 -30 -4 -74 -3 -98 1
-55 11 -153 68 -153 90 0 28 60 213 73 226 7 6 35 21 63 32 l52 20 21 -23 21
-22 -23 -22 c-14 -13 -27 -18 -35 -13 -22 13 -63 1 -58 -18 13 -48 17 -123 6
-135 -6 -9 -7 -17 -2 -20 6 -3 17 5 26 19 14 21 25 25 62 25 36 0 50 -5 70
-27 13 -14 27 -23 31 -19 4 3 1 12 -5 18 -19 19 -14 28 23 44 30 12 40 12 75
0 41 -14 55 -5 21 14 -33 17 -96 12 -124 -11 -22 -17 -30 -18 -48 -8 -13 7
-40 9 -65 5 l-44 -6 0 51 c0 49 1 51 25 45 18 -5 32 1 56 22 l32 29 -27 36
c-16 21 -31 37 -35 36 -3 0 -35 -13 -70 -28z"/>
<path d="M321 377 c-6 -6 -11 -16 -11 -22 0 -12 62 -75 74 -75 4 0 23 12 42
26 35 27 43 54 22 71 -18 14 -114 13 -127 0z m119 -21 c0 -7 -11 -23 -24 -35
l-24 -23 -31 23 c-48 36 -43 45 29 46 33 0 50 -3 50 -11z"/>
<path d="M111 94 c23 -28 67 -44 121 -43 l53 2 -50 6 c-28 3 -67 16 -88 29
-45 26 -54 28 -36 6z"/>
<path d="M406 101 c-7 -11 24 -31 48 -31 9 0 16 5 16 10 0 6 -8 10 -18 10 -10
0 -23 5 -29 11 -7 7 -13 7 -17 0z"/>
</g>
</svg>
